<mxfile host="app.diagrams.net" modified="2023-12-26T15:05:40.647Z" agent="Mozilla/5.0 (Windows NT 10.0; Win64; x64) AppleWebKit/537.36 (KHTML, like Gecko) Chrome/120.0.0.0 Safari/537.36" etag="d4NFIKI07NfAYDms4CL1" version="22.1.11" type="github">
  <diagram name="Страница — 1" id="iDCHCvlA0cszMsegYRTw">
    <mxGraphModel dx="1114" dy="604" grid="1" gridSize="10" guides="1" tooltips="1" connect="1" arrows="1" fold="1" page="1" pageScale="1" pageWidth="827" pageHeight="1169" math="0" shadow="0">
      <root>
        <mxCell id="0" />
        <mxCell id="1" parent="0" />
        <mxCell id="yoxs1t4N-Qf39bsdmu-C-5" value="" style="edgeStyle=orthogonalEdgeStyle;rounded=0;orthogonalLoop=1;jettySize=auto;html=1;" edge="1" parent="1" source="yoxs1t4N-Qf39bsdmu-C-1" target="yoxs1t4N-Qf39bsdmu-C-4">
          <mxGeometry relative="1" as="geometry" />
        </mxCell>
        <mxCell id="yoxs1t4N-Qf39bsdmu-C-1" value="Start" style="ellipse;whiteSpace=wrap;html=1;" vertex="1" parent="1">
          <mxGeometry x="330" y="20" width="120" height="80" as="geometry" />
        </mxCell>
        <mxCell id="yoxs1t4N-Qf39bsdmu-C-7" value="" style="edgeStyle=orthogonalEdgeStyle;rounded=0;orthogonalLoop=1;jettySize=auto;html=1;" edge="1" parent="1" source="yoxs1t4N-Qf39bsdmu-C-4" target="yoxs1t4N-Qf39bsdmu-C-6">
          <mxGeometry relative="1" as="geometry" />
        </mxCell>
        <mxCell id="yoxs1t4N-Qf39bsdmu-C-4" value="&#xa;&lt;span style=&quot;color: rgb(0, 0, 0); font-family: Helvetica; font-size: 12px; font-style: normal; font-variant-ligatures: normal; font-variant-caps: normal; font-weight: 400; letter-spacing: normal; orphans: 2; text-align: center; text-indent: 0px; text-transform: none; widows: 2; word-spacing: 0px; -webkit-text-stroke-width: 0px; background-color: rgb(251, 251, 251); text-decoration-thickness: initial; text-decoration-style: initial; text-decoration-color: initial; float: none; display: inline !important;&quot;&gt;N&lt;/span&gt;&lt;br style=&quot;border-color: var(--border-color); color: rgb(0, 0, 0); font-family: Helvetica; font-size: 12px; font-style: normal; font-variant-ligatures: normal; font-variant-caps: normal; font-weight: 400; letter-spacing: normal; orphans: 2; text-align: center; text-indent: 0px; text-transform: none; widows: 2; word-spacing: 0px; -webkit-text-stroke-width: 0px; background-color: rgb(251, 251, 251); text-decoration-thickness: initial; text-decoration-style: initial; text-decoration-color: initial;&quot;&gt;&lt;span style=&quot;color: rgb(0, 0, 0); font-family: Helvetica; font-size: 12px; font-style: normal; font-variant-ligatures: normal; font-variant-caps: normal; font-weight: 400; letter-spacing: normal; orphans: 2; text-align: center; text-indent: 0px; text-transform: none; widows: 2; word-spacing: 0px; -webkit-text-stroke-width: 0px; background-color: rgb(251, 251, 251); text-decoration-thickness: initial; text-decoration-style: initial; text-decoration-color: initial; float: none; display: inline !important;&quot;&gt;list[N]&lt;/span&gt;&#xa;&#xa;" style="shape=parallelogram;perimeter=parallelogramPerimeter;whiteSpace=wrap;html=1;fixedSize=1;" vertex="1" parent="1">
          <mxGeometry x="330" y="130" width="120" height="60" as="geometry" />
        </mxCell>
        <mxCell id="yoxs1t4N-Qf39bsdmu-C-9" value="" style="edgeStyle=orthogonalEdgeStyle;rounded=0;orthogonalLoop=1;jettySize=auto;html=1;" edge="1" parent="1" source="yoxs1t4N-Qf39bsdmu-C-6" target="yoxs1t4N-Qf39bsdmu-C-8">
          <mxGeometry relative="1" as="geometry" />
        </mxCell>
        <mxCell id="yoxs1t4N-Qf39bsdmu-C-6" value="resultList = []&lt;br&gt;i = 0" style="whiteSpace=wrap;html=1;" vertex="1" parent="1">
          <mxGeometry x="330" y="220" width="120" height="60" as="geometry" />
        </mxCell>
        <mxCell id="yoxs1t4N-Qf39bsdmu-C-11" value="" style="edgeStyle=orthogonalEdgeStyle;rounded=0;orthogonalLoop=1;jettySize=auto;html=1;" edge="1" parent="1" source="yoxs1t4N-Qf39bsdmu-C-8">
          <mxGeometry relative="1" as="geometry">
            <mxPoint x="390" y="440" as="targetPoint" />
          </mxGeometry>
        </mxCell>
        <mxCell id="yoxs1t4N-Qf39bsdmu-C-19" value="Yes" style="edgeLabel;html=1;align=center;verticalAlign=middle;resizable=0;points=[];" vertex="1" connectable="0" parent="yoxs1t4N-Qf39bsdmu-C-11">
          <mxGeometry x="-0.1606" y="1" relative="1" as="geometry">
            <mxPoint as="offset" />
          </mxGeometry>
        </mxCell>
        <mxCell id="yoxs1t4N-Qf39bsdmu-C-24" style="edgeStyle=orthogonalEdgeStyle;rounded=0;orthogonalLoop=1;jettySize=auto;html=1;" edge="1" parent="1" source="yoxs1t4N-Qf39bsdmu-C-8">
          <mxGeometry relative="1" as="geometry">
            <mxPoint x="540" y="360" as="targetPoint" />
          </mxGeometry>
        </mxCell>
        <mxCell id="yoxs1t4N-Qf39bsdmu-C-25" value="No" style="edgeLabel;html=1;align=center;verticalAlign=middle;resizable=0;points=[];" vertex="1" connectable="0" parent="yoxs1t4N-Qf39bsdmu-C-24">
          <mxGeometry x="-0.1813" y="1" relative="1" as="geometry">
            <mxPoint as="offset" />
          </mxGeometry>
        </mxCell>
        <mxCell id="yoxs1t4N-Qf39bsdmu-C-8" value="i &amp;lt; N" style="rhombus;whiteSpace=wrap;html=1;" vertex="1" parent="1">
          <mxGeometry x="325" y="320" width="130" height="80" as="geometry" />
        </mxCell>
        <mxCell id="yoxs1t4N-Qf39bsdmu-C-15" value="" style="edgeStyle=orthogonalEdgeStyle;rounded=0;orthogonalLoop=1;jettySize=auto;html=1;" edge="1" parent="1" source="yoxs1t4N-Qf39bsdmu-C-13" target="yoxs1t4N-Qf39bsdmu-C-14">
          <mxGeometry relative="1" as="geometry" />
        </mxCell>
        <mxCell id="yoxs1t4N-Qf39bsdmu-C-20" value="Yes&lt;br&gt;" style="edgeLabel;html=1;align=center;verticalAlign=middle;resizable=0;points=[];" vertex="1" connectable="0" parent="yoxs1t4N-Qf39bsdmu-C-15">
          <mxGeometry x="-0.25" y="-2" relative="1" as="geometry">
            <mxPoint as="offset" />
          </mxGeometry>
        </mxCell>
        <mxCell id="yoxs1t4N-Qf39bsdmu-C-22" style="edgeStyle=orthogonalEdgeStyle;rounded=0;orthogonalLoop=1;jettySize=auto;html=1;" edge="1" parent="1" source="yoxs1t4N-Qf39bsdmu-C-13">
          <mxGeometry relative="1" as="geometry">
            <mxPoint x="260" y="480" as="targetPoint" />
          </mxGeometry>
        </mxCell>
        <mxCell id="yoxs1t4N-Qf39bsdmu-C-23" value="No" style="edgeLabel;html=1;align=center;verticalAlign=middle;resizable=0;points=[];" vertex="1" connectable="0" parent="yoxs1t4N-Qf39bsdmu-C-22">
          <mxGeometry x="-0.279" y="-2" relative="1" as="geometry">
            <mxPoint x="-3" as="offset" />
          </mxGeometry>
        </mxCell>
        <mxCell id="yoxs1t4N-Qf39bsdmu-C-13" value="item.length &amp;lt;= 3" style="rhombus;whiteSpace=wrap;html=1;" vertex="1" parent="1">
          <mxGeometry x="290" y="440" width="200" height="80" as="geometry" />
        </mxCell>
        <mxCell id="yoxs1t4N-Qf39bsdmu-C-18" style="edgeStyle=orthogonalEdgeStyle;rounded=0;orthogonalLoop=1;jettySize=auto;html=1;entryX=0;entryY=0.5;entryDx=0;entryDy=0;" edge="1" parent="1" source="yoxs1t4N-Qf39bsdmu-C-14" target="yoxs1t4N-Qf39bsdmu-C-8">
          <mxGeometry relative="1" as="geometry">
            <Array as="points">
              <mxPoint x="260" y="590" />
              <mxPoint x="260" y="360" />
            </Array>
          </mxGeometry>
        </mxCell>
        <mxCell id="yoxs1t4N-Qf39bsdmu-C-14" value="resultList.Add(item)" style="whiteSpace=wrap;html=1;" vertex="1" parent="1">
          <mxGeometry x="300" y="560" width="180" height="60" as="geometry" />
        </mxCell>
        <mxCell id="yoxs1t4N-Qf39bsdmu-C-26" style="edgeStyle=orthogonalEdgeStyle;rounded=0;orthogonalLoop=1;jettySize=auto;html=1;" edge="1" parent="1" source="yoxs1t4N-Qf39bsdmu-C-16" target="yoxs1t4N-Qf39bsdmu-C-27">
          <mxGeometry relative="1" as="geometry">
            <mxPoint x="646.25" y="450" as="targetPoint" />
          </mxGeometry>
        </mxCell>
        <mxCell id="yoxs1t4N-Qf39bsdmu-C-16" value="resultArray = resultList.ToArray()" style="whiteSpace=wrap;html=1;" vertex="1" parent="1">
          <mxGeometry x="540" y="330" width="212.5" height="60" as="geometry" />
        </mxCell>
        <mxCell id="yoxs1t4N-Qf39bsdmu-C-29" value="" style="edgeStyle=orthogonalEdgeStyle;rounded=0;orthogonalLoop=1;jettySize=auto;html=1;" edge="1" parent="1" source="yoxs1t4N-Qf39bsdmu-C-27" target="yoxs1t4N-Qf39bsdmu-C-28">
          <mxGeometry relative="1" as="geometry" />
        </mxCell>
        <mxCell id="yoxs1t4N-Qf39bsdmu-C-27" value="print(resultArray)" style="shape=document;whiteSpace=wrap;html=1;boundedLbl=1;" vertex="1" parent="1">
          <mxGeometry x="586.25" y="450" width="120" height="80" as="geometry" />
        </mxCell>
        <mxCell id="yoxs1t4N-Qf39bsdmu-C-28" value="End" style="ellipse;whiteSpace=wrap;html=1;" vertex="1" parent="1">
          <mxGeometry x="586.25" y="570" width="120" height="80" as="geometry" />
        </mxCell>
      </root>
    </mxGraphModel>
  </diagram>
</mxfile>
